<svg width="16" height="16" viewBox="0 0 16 16" fill="none" xmlns="http://www.w3.org/2000/svg">
<g clip-path="url(#clip0_350_4648)">
<path d="M12.7949 7.07744L3.20824 7.07744C2.18157 7.07744 1.4349 7.91744 1.5549 8.93744L1.82824 11.2708C1.92157 12.0841 2.66824 12.7441 3.48158 12.7441H4.16824V14.0774C4.16824 14.3508 4.39491 14.5774 4.66824 14.5774C4.94158 14.5774 5.16824 14.3508 5.16824 14.0774V12.7441H10.8349V14.0774C10.8349 14.3508 11.0616 14.5774 11.3349 14.5774C11.6082 14.5774 11.8349 14.3508 11.8349 14.0774V12.7441H12.5216C13.3349 12.7441 14.0816 12.0841 14.1749 11.2708L14.4483 8.93744C14.5683 7.9241 13.8216 7.07744 12.7949 7.07744Z" fill="black"/>
<path d="M11.0012 1.41025L5.00122 1.41025C3.89455 1.41025 3.00122 2.30358 3.00122 3.41025L3.00122 5.74358C3.00122 6.11025 3.30122 6.41025 3.66789 6.41025H4.16789C4.53455 6.41025 4.83455 6.11025 4.83455 5.74358V5.41025C4.83455 4.58358 5.50789 3.91025 6.33455 3.91025L9.66789 3.91025C10.4946 3.91025 11.1679 4.58358 11.1679 5.41025V5.74358C11.1679 6.11025 11.4679 6.41025 11.8346 6.41025H12.3346C12.7012 6.41025 13.0012 6.11025 13.0012 5.74358V3.41025C13.0012 2.31025 12.1079 1.41025 11.0012 1.41025Z" fill="black"/>
</g>
<defs>
<clipPath id="clip0_350_4648">
<rect width="16" height="16" fill="white"/>
</clipPath>
</defs>
</svg>
