<svg width="16" height="16" viewBox="0 0 16 16" fill="none" xmlns="http://www.w3.org/2000/svg">
<g clip-path="url(#clip0_350_4645)">
<path d="M12.4906 3.49223C12.6039 4.94556 11.404 6.14556 9.95729 6.03223C9.51062 5.9989 9.10393 5.83889 8.76393 5.58556C8.7106 5.54556 8.69723 5.47223 8.73057 5.41223C9.09057 4.81223 9.25729 4.1189 9.20395 3.41223C9.16395 2.88556 8.99057 2.3989 8.73057 1.9589C8.69723 1.8989 8.7106 1.82556 8.76393 1.78556C9.19726 1.46556 9.74392 1.29223 10.3373 1.3389C11.4773 1.42556 12.4039 2.35223 12.4906 3.49223Z" fill="black"/>
<path d="M13.3404 12.1011L12.9537 12.2944L12.427 12.5611C12.347 12.6011 12.2671 12.6144 12.1871 12.6144L12.087 13.5877C12.027 14.2011 11.5137 14.6677 10.8937 14.6677H9.39368C9.18035 14.6677 8.98035 14.6144 8.80701 14.5144C8.69368 14.4477 8.64706 14.3144 8.69373 14.1944C8.74706 14.0344 8.78701 13.8611 8.80034 13.6811L8.82703 13.4744C8.84036 13.3811 8.89368 13.3077 8.97368 13.2611L9.12708 13.1877L9.50704 12.9944C10.367 12.5877 10.8604 11.6277 10.6871 10.6611L10.3337 8.49441C10.247 7.95441 10.0271 7.45441 9.68706 7.02775C9.62039 6.94108 9.68041 6.80775 9.78707 6.80775H11.427C12.0137 6.80775 12.5471 7.02775 12.9471 7.40108C13.2937 7.72108 13.5404 8.16108 13.6204 8.66108L13.9804 10.8411C14.0804 11.3611 13.8204 11.8744 13.3404 12.1011Z" fill="black"/>
<path d="M8.00365 4.65793C7.77699 5.1646 7.37035 5.57127 6.87035 5.8046C6.56369 5.95793 6.22368 6.03793 5.86368 6.03793C5.79701 6.03793 5.73699 6.03127 5.67032 6.03127C5.37032 6.0046 5.09032 5.9246 4.83699 5.8046C4.10365 5.4446 3.58367 4.71793 3.517 3.87127C3.41033 2.4846 4.49701 1.33127 5.86368 1.33127C5.92368 1.33127 5.99028 1.33127 6.05028 1.33794C6.91695 1.4046 7.65699 1.95127 8.01033 2.71127C8.11699 2.95793 8.19036 3.21793 8.21036 3.49127C8.24369 3.91127 8.16365 4.3046 8.00365 4.65793Z" fill="black"/>
<path d="M9.05478 12.1036L8.66814 12.297L8.14145 12.5636C8.09478 12.5836 8.04814 12.6036 8.00148 12.6036C7.96814 12.617 7.93479 12.617 7.90146 12.617L7.80144 13.5903C7.74144 14.2036 7.22817 14.6703 6.60817 14.6703H5.10817C4.49483 14.6703 3.98148 14.2036 3.92148 13.5903L3.82146 12.617C3.8148 12.617 3.80812 12.617 3.80812 12.617C3.73478 12.617 3.6548 12.597 3.5748 12.5636L2.66814 12.1036C2.18814 11.877 1.92816 11.3636 2.0215 10.8436L2.38144 8.66362C2.56144 7.58362 3.48147 6.81029 4.5748 6.81029L7.14812 6.81029C7.45479 6.81029 7.74148 6.87029 8.00148 6.98362C8.24814 7.07696 8.47481 7.22362 8.66814 7.40362C9.01481 7.72362 9.26148 8.16362 9.34148 8.66362L9.70151 10.8436C9.79484 11.3636 9.53478 11.877 9.05478 12.1036Z" fill="black"/>
</g>
<defs>
<clipPath id="clip0_350_4645">
<rect width="16" height="16" fill="white"/>
</clipPath>
</defs>
</svg>
