<svg width="16" height="16" viewBox="0 0 16 16" fill="none" xmlns="http://www.w3.org/2000/svg">
<path d="M10.6192 1.75051L5.38174 1.75051C3.10674 1.75051 1.75049 3.10676 1.75049 5.38176L1.75049 10.613C1.75049 12.8943 3.10674 14.2505 5.38174 14.2505L10.613 14.2505C12.888 14.2505 14.2442 12.8943 14.2442 10.6193V5.38176C14.2505 3.10676 12.8942 1.75051 10.6192 1.75051ZM11.6567 9.31301C11.6317 9.36926 11.6005 9.41926 11.5567 9.46301L9.65674 11.363C9.56299 11.4568 9.44424 11.5005 9.32549 11.5005C9.20674 11.5005 9.08799 11.4568 8.99424 11.363C8.81299 11.1818 8.81299 10.8818 8.99424 10.7005L10.0942 9.60051H4.78174C4.52549 9.60051 4.31299 9.38801 4.31299 9.13176C4.31299 8.87551 4.52549 8.66301 4.78174 8.66301H11.2255C11.288 8.66301 11.3442 8.67551 11.4067 8.70051C11.5192 8.75051 11.613 8.83801 11.663 8.95676C11.7005 9.06926 11.7005 9.20051 11.6567 9.31301ZM11.2192 7.33176L4.78174 7.33176C4.71924 7.33176 4.66299 7.31926 4.60049 7.29426C4.48799 7.24426 4.39424 7.15676 4.34424 7.03801C4.29424 6.92551 4.29424 6.79426 4.34424 6.68176C4.36924 6.62551 4.40049 6.57551 4.44424 6.53176L6.34424 4.63176C6.52549 4.45051 6.82549 4.45051 7.00674 4.63176C7.18799 4.81301 7.18799 5.11301 7.00674 5.29426L5.91299 6.39426H11.2255C11.4817 6.39426 11.6942 6.60676 11.6942 6.86301C11.6942 7.11926 11.4817 7.33176 11.2192 7.33176Z" fill="black"/>
</svg>
